<svg xmlns="http://www.w3.org/2000/svg" xmlns:xlink="http://www.w3.org/1999/xlink" width="500" zoomAndPan="magnify" viewBox="0 0 375 149.999998" height="200" preserveAspectRatio="xMidYMid meet" version="1.0"><defs><g/><clipPath id="17cea5843b"><path d="M 0 10.578125 L 44.25 10.578125 L 44.25 125.328125 L 0 125.328125 Z M 0 10.578125 " clip-rule="nonzero"/></clipPath><clipPath id="a9b1dcb055"><path d="M 330.847656 10.578125 L 374.992188 10.578125 L 374.992188 125.328125 L 330.847656 125.328125 Z M 330.847656 10.578125 " clip-rule="nonzero"/></clipPath></defs><g clip-path="url(#17cea5843b)"><path fill="#000000" d="M 203.425781 27.902344 L 203.425781 108.480469 C 203.386719 108.480469 203.34375 108.480469 203.304688 108.480469 C 194.070312 108.480469 186.585938 115.925781 186.503906 125.160156 L 17.328125 125.160156 C 17.246094 115.925781 9.761719 108.480469 0.527344 108.480469 C 0.367188 108.480469 0.203125 108.523438 0 108.523438 L 0 27.902344 C 0.164062 27.902344 0.324219 27.941406 0.527344 27.941406 C 9.804688 27.941406 17.328125 20.417969 17.328125 11.140625 C 17.328125 10.980469 17.289062 10.816406 17.289062 10.652344 L 186.503906 10.652344 C 186.503906 10.816406 186.464844 10.980469 186.464844 11.140625 C 186.464844 20.417969 193.988281 27.941406 203.261719 27.941406 C 203.34375 27.902344 203.386719 27.902344 203.425781 27.902344 Z M 203.425781 27.902344 " fill-opacity="1" fill-rule="nonzero"/></g><g fill="#000000" fill-opacity="1"><g transform="translate(55.510934, 57.029838)"><g><path d="M 3.25 -44.75 L 17.140625 -44.75 C 21.335938 -44.75 24.679688 -43.851562 27.171875 -42.0625 C 29.671875 -40.28125 30.921875 -37.378906 30.921875 -33.359375 C 30.921875 -28.878906 29.054688 -25.679688 25.328125 -23.765625 C 31.691406 -22.640625 34.875 -18.878906 34.875 -12.484375 C 34.875 -8.710938 33.570312 -5.6875 30.96875 -3.40625 C 28.375 -1.132812 24.796875 0 20.234375 0 L 3.25 0 Z M 13.453125 -27.234375 L 14.265625 -27.234375 C 16.546875 -27.234375 18.242188 -27.628906 19.359375 -28.421875 C 20.484375 -29.222656 21.046875 -30.523438 21.046875 -32.328125 C 21.046875 -35.367188 18.785156 -36.890625 14.265625 -36.890625 L 13.453125 -36.890625 Z M 13.453125 -7.859375 L 16.65625 -7.859375 C 21.644531 -7.859375 24.140625 -9.523438 24.140625 -12.859375 C 24.140625 -14.847656 23.515625 -16.273438 22.265625 -17.140625 C 21.015625 -18.003906 19.144531 -18.4375 16.65625 -18.4375 L 13.453125 -18.4375 Z M 13.453125 -7.859375 "/></g></g></g><g fill="#000000" fill-opacity="1"><g transform="translate(89.142062, 57.029838)"><g><path d="M 4.171875 -43.34375 C 5.296875 -44.46875 6.632812 -45.03125 8.1875 -45.03125 C 9.75 -45.03125 11.085938 -44.46875 12.203125 -43.34375 C 13.328125 -42.21875 13.890625 -40.878906 13.890625 -39.328125 C 13.890625 -37.773438 13.328125 -36.4375 12.203125 -35.3125 C 11.085938 -34.195312 9.75 -33.640625 8.1875 -33.640625 C 6.632812 -33.640625 5.296875 -34.195312 4.171875 -35.3125 C 3.054688 -36.4375 2.5 -37.773438 2.5 -39.328125 C 2.5 -40.878906 3.054688 -42.21875 4.171875 -43.34375 Z M 3.25 -27.828125 L 3.25 0 L 12.859375 0 L 12.859375 -27.828125 Z M 3.25 -27.828125 "/></g></g></g><g fill="#000000" fill-opacity="1"><g transform="translate(103.028321, 57.029838)"><g><path d="M 3.25 0 L 3.25 -27.828125 L 12.859375 -27.828125 L 12.859375 -23.8125 L 12.96875 -23.8125 C 13.039062 -23.957031 13.15625 -24.140625 13.3125 -24.359375 C 13.476562 -24.578125 13.832031 -24.957031 14.375 -25.5 C 14.914062 -26.039062 15.492188 -26.523438 16.109375 -26.953125 C 16.722656 -27.390625 17.519531 -27.78125 18.5 -28.125 C 19.476562 -28.46875 20.472656 -28.640625 21.484375 -28.640625 C 22.535156 -28.640625 23.566406 -28.492188 24.578125 -28.203125 C 25.585938 -27.921875 26.328125 -27.632812 26.796875 -27.34375 L 27.5625 -26.90625 L 23.546875 -18.765625 C 22.347656 -19.785156 20.679688 -20.296875 18.546875 -20.296875 C 17.390625 -20.296875 16.394531 -20.039062 15.5625 -19.53125 C 14.738281 -19.019531 14.15625 -18.398438 13.8125 -17.671875 C 13.46875 -16.953125 13.222656 -16.335938 13.078125 -15.828125 C 12.929688 -15.328125 12.859375 -14.929688 12.859375 -14.640625 L 12.859375 0 Z M 3.25 0 "/></g></g></g><g fill="#000000" fill-opacity="1"><g transform="translate(127.546422, 57.029838)"><g><path d="M 4.875 -27.828125 L 4.875 -38.1875 L 14.484375 -38.1875 L 14.484375 -27.828125 L 20.34375 -27.828125 L 20.34375 -20.5 L 14.484375 -20.5 L 14.484375 -11.65625 C 14.484375 -9.09375 15.207031 -7.8125 16.65625 -7.8125 C 17.019531 -7.8125 17.398438 -7.882812 17.796875 -8.03125 C 18.191406 -8.175781 18.5 -8.320312 18.71875 -8.46875 L 19.046875 -8.6875 L 21.421875 -0.921875 C 19.367188 0.234375 17.019531 0.8125 14.375 0.8125 C 12.5625 0.8125 11.003906 0.5 9.703125 -0.125 C 8.398438 -0.757812 7.414062 -1.609375 6.75 -2.671875 C 6.082031 -3.742188 5.601562 -4.867188 5.3125 -6.046875 C 5.019531 -7.222656 4.875 -8.476562 4.875 -9.8125 L 4.875 -20.5 L 0.875 -20.5 L 0.875 -27.828125 Z M 4.875 -27.828125 "/></g></g></g><g fill="#000000" fill-opacity="1"><g transform="translate(146.477381, 57.029838)"><g><path d="M 3.25 0 L 3.25 -46.65625 L 12.859375 -46.65625 L 12.859375 -24.90625 L 12.96875 -24.90625 C 15.457031 -27.394531 18.113281 -28.640625 20.9375 -28.640625 C 22.3125 -28.640625 23.675781 -28.457031 25.03125 -28.09375 C 26.394531 -27.738281 27.695312 -27.179688 28.9375 -26.421875 C 30.1875 -25.660156 31.195312 -24.582031 31.96875 -23.1875 C 32.75 -21.800781 33.140625 -20.1875 33.140625 -18.34375 L 33.140625 0 L 23.546875 0 L 23.546875 -15.734375 C 23.546875 -17.179688 23.082031 -18.445312 22.15625 -19.53125 C 21.238281 -20.613281 20.035156 -21.15625 18.546875 -21.15625 C 17.109375 -21.15625 15.800781 -20.59375 14.625 -19.46875 C 13.445312 -18.351562 12.859375 -17.109375 12.859375 -15.734375 L 12.859375 0 Z M 3.25 0 "/></g></g></g><g fill="#000000" fill-opacity="1"><g transform="translate(179.837281, 57.029838)"><g><path d="M 5.15625 -3.4375 C 2.550781 -6.28125 1.25 -9.765625 1.25 -13.890625 C 1.25 -18.015625 2.550781 -21.503906 5.15625 -24.359375 C 7.757812 -27.210938 11.066406 -28.640625 15.078125 -28.640625 C 18.765625 -28.640625 21.804688 -27.484375 24.203125 -25.171875 L 24.203125 -46.65625 L 33.796875 -46.65625 L 33.796875 0 L 24.296875 0 L 24.296875 -3.140625 L 24.203125 -3.140625 C 21.804688 -0.503906 18.765625 0.8125 15.078125 0.8125 C 11.066406 0.8125 7.757812 -0.601562 5.15625 -3.4375 Z M 13.3125 -18.609375 C 12.070312 -17.378906 11.453125 -15.804688 11.453125 -13.890625 C 11.453125 -11.972656 12.046875 -10.40625 13.234375 -9.1875 C 14.429688 -7.976562 16.003906 -7.375 17.953125 -7.375 C 19.835938 -7.375 21.382812 -7.988281 22.59375 -9.21875 C 23.800781 -10.445312 24.40625 -12.003906 24.40625 -13.890625 C 24.40625 -15.804688 23.78125 -17.378906 22.53125 -18.609375 C 21.289062 -19.835938 19.765625 -20.453125 17.953125 -20.453125 C 16.109375 -20.453125 14.5625 -19.835938 13.3125 -18.609375 Z M 13.3125 -18.609375 "/></g></g></g><g fill="#000000" fill-opacity="1"><g transform="translate(214.390553, 57.029838)"><g><path d="M 5.15625 -3.4375 C 2.550781 -6.28125 1.25 -9.765625 1.25 -13.890625 C 1.25 -18.015625 2.550781 -21.503906 5.15625 -24.359375 C 7.757812 -27.210938 11.066406 -28.640625 15.078125 -28.640625 C 18.765625 -28.640625 21.804688 -27.484375 24.203125 -25.171875 L 24.203125 -27.828125 L 33.796875 -27.828125 L 33.796875 0 L 24.296875 0 L 24.296875 -3.140625 L 24.203125 -3.140625 C 21.804688 -0.503906 18.765625 0.8125 15.078125 0.8125 C 11.066406 0.8125 7.757812 -0.601562 5.15625 -3.4375 Z M 13.3125 -18.609375 C 12.070312 -17.378906 11.453125 -15.804688 11.453125 -13.890625 C 11.453125 -11.972656 12.046875 -10.40625 13.234375 -9.1875 C 14.429688 -7.976562 16.003906 -7.375 17.953125 -7.375 C 19.835938 -7.375 21.382812 -7.988281 22.59375 -9.21875 C 23.800781 -10.445312 24.40625 -12.003906 24.40625 -13.890625 C 24.40625 -15.804688 23.78125 -17.378906 22.53125 -18.609375 C 21.289062 -19.835938 19.765625 -20.453125 17.953125 -20.453125 C 16.109375 -20.453125 14.5625 -19.835938 13.3125 -18.609375 Z M 13.3125 -18.609375 "/></g></g></g><g fill="#000000" fill-opacity="1"><g transform="translate(248.943833, 57.029838)"><g><path d="M 24.359375 -27.828125 L 35.421875 -27.828125 L 13.5625 14.109375 L 2.5 14.109375 L 12.09375 -4.34375 L -1.078125 -27.828125 L 9.984375 -27.828125 L 17.734375 -13.5625 Z M 24.359375 -27.828125 "/></g></g></g><g fill="#000000" fill-opacity="1"><g transform="translate(55.510934, 121.451155)"><g><path d="M 3.25 -44.75 L 17.140625 -44.75 C 21.335938 -44.75 24.679688 -43.851562 27.171875 -42.0625 C 29.671875 -40.28125 30.921875 -37.378906 30.921875 -33.359375 C 30.921875 -28.878906 29.054688 -25.679688 25.328125 -23.765625 C 31.691406 -22.640625 34.875 -18.878906 34.875 -12.484375 C 34.875 -8.710938 33.570312 -5.6875 30.96875 -3.40625 C 28.375 -1.132812 24.796875 0 20.234375 0 L 3.25 0 Z M 13.453125 -27.234375 L 14.265625 -27.234375 C 16.546875 -27.234375 18.242188 -27.628906 19.359375 -28.421875 C 20.484375 -29.222656 21.046875 -30.523438 21.046875 -32.328125 C 21.046875 -35.367188 18.785156 -36.890625 14.265625 -36.890625 L 13.453125 -36.890625 Z M 13.453125 -7.859375 L 16.65625 -7.859375 C 21.644531 -7.859375 24.140625 -9.523438 24.140625 -12.859375 C 24.140625 -14.847656 23.515625 -16.273438 22.265625 -17.140625 C 21.015625 -18.003906 19.144531 -18.4375 16.65625 -18.4375 L 13.453125 -18.4375 Z M 13.453125 -7.859375 "/></g></g></g><g fill="#000000" fill-opacity="1"><g transform="translate(89.142062, 121.451155)"><g><path d="M 5.890625 -3.3125 C 2.796875 -6.0625 1.25 -9.585938 1.25 -13.890625 C 1.25 -18.191406 2.859375 -21.722656 6.078125 -24.484375 C 9.296875 -27.253906 13.273438 -28.640625 18.015625 -28.640625 C 22.679688 -28.640625 26.613281 -27.25 29.8125 -24.46875 C 33.007812 -21.6875 34.609375 -18.160156 34.609375 -13.890625 C 34.609375 -9.617188 33.039062 -6.097656 29.90625 -3.328125 C 26.78125 -0.566406 22.816406 0.8125 18.015625 0.8125 C 13.023438 0.8125 8.984375 -0.5625 5.890625 -3.3125 Z M 13.3125 -18.609375 C 12.070312 -17.378906 11.453125 -15.804688 11.453125 -13.890625 C 11.453125 -11.972656 12.046875 -10.40625 13.234375 -9.1875 C 14.429688 -7.976562 16.003906 -7.375 17.953125 -7.375 C 19.835938 -7.375 21.382812 -7.988281 22.59375 -9.21875 C 23.800781 -10.445312 24.40625 -12.003906 24.40625 -13.890625 C 24.40625 -15.804688 23.78125 -17.378906 22.53125 -18.609375 C 21.289062 -19.835938 19.765625 -20.453125 17.953125 -20.453125 C 16.109375 -20.453125 14.5625 -19.835938 13.3125 -18.609375 Z M 13.3125 -18.609375 "/></g></g></g><g fill="#000000" fill-opacity="1"><g transform="translate(122.501961, 121.451155)"><g><path d="M 35.484375 0 L 23.875 0 L 17.734375 -7.859375 L 11.609375 0 L 0 0 L 11.875 -14.53125 L 1.6875 -27.828125 L 12.90625 -27.828125 L 17.734375 -21.375 L 22.5625 -27.828125 L 33.796875 -27.828125 L 23.59375 -14.53125 Z M 35.484375 0 "/></g></g></g><g fill="#000000" fill-opacity="1"><g transform="translate(155.482157, 121.451155)"><g/></g></g><g fill="#000000" fill-opacity="1"><g transform="translate(167.795325, 121.451155)"><g><path d="M 1.25 -22.40625 C 1.25 -28.875 3.453125 -34.347656 7.859375 -38.828125 C 12.273438 -43.316406 17.59375 -45.5625 23.8125 -45.5625 C 30.070312 -45.5625 35.390625 -43.328125 39.765625 -38.859375 C 44.140625 -34.398438 46.328125 -28.914062 46.328125 -22.40625 C 46.328125 -15.863281 44.175781 -10.359375 39.875 -5.890625 C 35.570312 -1.421875 30.21875 0.8125 23.8125 0.8125 C 17.269531 0.8125 11.875 -1.398438 7.625 -5.828125 C 3.375 -10.265625 1.25 -15.789062 1.25 -22.40625 Z M 12.265625 -22.40625 C 12.265625 -20.050781 12.625 -17.90625 13.34375 -15.96875 C 14.070312 -14.039062 15.335938 -12.40625 17.140625 -11.0625 C 18.953125 -9.726562 21.175781 -9.0625 23.8125 -9.0625 C 27.613281 -9.0625 30.476562 -10.363281 32.40625 -12.96875 C 34.34375 -15.570312 35.3125 -18.71875 35.3125 -22.40625 C 35.3125 -26.0625 34.328125 -29.195312 32.359375 -31.8125 C 30.390625 -34.4375 27.539062 -35.75 23.8125 -35.75 C 20.125 -35.75 17.273438 -34.4375 15.265625 -31.8125 C 13.265625 -29.195312 12.265625 -26.0625 12.265625 -22.40625 Z M 12.265625 -22.40625 "/></g></g></g><g fill="#000000" fill-opacity="1"><g transform="translate(212.871955, 121.451155)"><g><path d="M 4.875 -27.828125 L 4.875 -33.75 C 4.914062 -37.90625 5.894531 -41.226562 7.8125 -43.71875 C 9.726562 -46.21875 12.382812 -47.46875 15.78125 -47.46875 C 17.226562 -47.46875 18.613281 -47.257812 19.9375 -46.84375 C 21.257812 -46.425781 22.207031 -46 22.78125 -45.5625 L 23.703125 -44.96875 L 20.34375 -38.1875 C 19.476562 -38.695312 18.519531 -38.953125 17.46875 -38.953125 C 16.269531 -38.953125 15.472656 -38.546875 15.078125 -37.734375 C 14.679688 -36.921875 14.484375 -35.5 14.484375 -33.46875 L 14.484375 -27.828125 L 20.890625 -27.828125 L 20.890625 -20.5 L 14.484375 -20.5 L 14.484375 0 L 4.875 0 L 4.875 -20.5 L 0.875 -20.5 L 0.875 -27.828125 Z M 4.875 -27.828125 "/></g></g></g><g fill="#000000" fill-opacity="1"><g transform="translate(230.718026, 121.451155)"><g><path d="M 4.875 -27.828125 L 4.875 -33.75 C 4.914062 -37.90625 5.894531 -41.226562 7.8125 -43.71875 C 9.726562 -46.21875 12.382812 -47.46875 15.78125 -47.46875 C 17.226562 -47.46875 18.613281 -47.257812 19.9375 -46.84375 C 21.257812 -46.425781 22.207031 -46 22.78125 -45.5625 L 23.703125 -44.96875 L 20.34375 -38.1875 C 19.476562 -38.695312 18.519531 -38.953125 17.46875 -38.953125 C 16.269531 -38.953125 15.472656 -38.546875 15.078125 -37.734375 C 14.679688 -36.921875 14.484375 -35.5 14.484375 -33.46875 L 14.484375 -27.828125 L 20.890625 -27.828125 L 20.890625 -20.5 L 14.484375 -20.5 L 14.484375 0 L 4.875 0 L 4.875 -20.5 L 0.875 -20.5 L 0.875 -27.828125 Z M 4.875 -27.828125 "/></g></g></g><g fill="#000000" fill-opacity="1"><g transform="translate(248.564098, 121.451155)"><g><path d="M 4.171875 -43.34375 C 5.296875 -44.46875 6.632812 -45.03125 8.1875 -45.03125 C 9.75 -45.03125 11.085938 -44.46875 12.203125 -43.34375 C 13.328125 -42.21875 13.890625 -40.878906 13.890625 -39.328125 C 13.890625 -37.773438 13.328125 -36.4375 12.203125 -35.3125 C 11.085938 -34.195312 9.75 -33.640625 8.1875 -33.640625 C 6.632812 -33.640625 5.296875 -34.195312 4.171875 -35.3125 C 3.054688 -36.4375 2.5 -37.773438 2.5 -39.328125 C 2.5 -40.878906 3.054688 -42.21875 4.171875 -43.34375 Z M 3.25 -27.828125 L 3.25 0 L 12.859375 0 L 12.859375 -27.828125 Z M 3.25 -27.828125 "/></g></g></g><g fill="#000000" fill-opacity="1"><g transform="translate(262.450349, 121.451155)"><g><path d="M 18.0625 -20.78125 C 16.257812 -20.78125 14.707031 -20.109375 13.40625 -18.765625 C 12.101562 -17.429688 11.453125 -15.820312 11.453125 -13.9375 C 11.453125 -12.019531 12.101562 -10.390625 13.40625 -9.046875 C 14.707031 -7.710938 16.257812 -7.046875 18.0625 -7.046875 C 18.9375 -7.046875 19.757812 -7.15625 20.53125 -7.375 C 21.3125 -7.59375 21.882812 -7.8125 22.25 -8.03125 L 22.734375 -8.359375 L 25.984375 -1.6875 C 25.734375 -1.5 25.378906 -1.269531 24.921875 -1 C 24.472656 -0.726562 23.441406 -0.359375 21.828125 0.109375 C 20.222656 0.578125 18.5 0.8125 16.65625 0.8125 C 12.570312 0.8125 8.984375 -0.625 5.890625 -3.5 C 2.796875 -6.375 1.25 -9.816406 1.25 -13.828125 C 1.25 -17.878906 2.796875 -21.359375 5.890625 -24.265625 C 8.984375 -27.179688 12.570312 -28.640625 16.65625 -28.640625 C 18.5 -28.640625 20.195312 -28.421875 21.75 -27.984375 C 23.3125 -27.554688 24.414062 -27.125 25.0625 -26.6875 L 25.984375 -26.046875 L 22.734375 -19.46875 C 21.535156 -20.34375 19.976562 -20.78125 18.0625 -20.78125 Z M 18.0625 -20.78125 "/></g></g></g><g fill="#000000" fill-opacity="1"><g transform="translate(286.588753, 121.451155)"><g><path d="M 31.40625 -12.59375 L 11.234375 -12.59375 C 11.234375 -10.632812 11.863281 -9.179688 13.125 -8.234375 C 14.394531 -7.296875 15.769531 -6.828125 17.25 -6.828125 C 18.800781 -6.828125 20.03125 -7.035156 20.9375 -7.453125 C 21.84375 -7.867188 22.875 -8.691406 24.03125 -9.921875 L 30.984375 -6.453125 C 28.085938 -1.609375 23.273438 0.8125 16.546875 0.8125 C 12.347656 0.8125 8.75 -0.625 5.75 -3.5 C 2.75 -6.375 1.25 -9.835938 1.25 -13.890625 C 1.25 -17.941406 2.75 -21.410156 5.75 -24.296875 C 8.75 -27.191406 12.347656 -28.640625 16.546875 -28.640625 C 20.960938 -28.640625 24.550781 -27.363281 27.3125 -24.8125 C 30.082031 -22.269531 31.46875 -18.628906 31.46875 -13.890625 C 31.46875 -13.234375 31.445312 -12.800781 31.40625 -12.59375 Z M 11.5 -17.90625 L 22.078125 -17.90625 C 21.859375 -19.351562 21.285156 -20.460938 20.359375 -21.234375 C 19.441406 -22.015625 18.257812 -22.40625 16.8125 -22.40625 C 15.226562 -22.40625 13.960938 -21.988281 13.015625 -21.15625 C 12.078125 -20.320312 11.570312 -19.238281 11.5 -17.90625 Z M 11.5 -17.90625 "/></g></g></g><g clip-path="url(#a9b1dcb055)"><path fill="#000000" d="M 171.566406 27.902344 L 171.566406 108.480469 C 171.605469 108.480469 171.648438 108.480469 171.6875 108.480469 C 180.921875 108.480469 188.40625 115.925781 188.488281 125.160156 L 357.664062 125.160156 C 357.742188 115.925781 365.226562 108.480469 374.460938 108.480469 C 374.625 108.480469 374.789062 108.523438 374.992188 108.523438 L 374.992188 27.902344 C 374.828125 27.902344 374.664062 27.941406 374.460938 27.941406 C 365.1875 27.941406 357.664062 20.417969 357.664062 11.140625 C 357.664062 10.980469 357.703125 10.816406 357.703125 10.652344 L 188.488281 10.652344 C 188.488281 10.816406 188.527344 10.980469 188.527344 11.140625 C 188.527344 20.417969 181.003906 27.941406 171.726562 27.941406 C 171.648438 27.902344 171.605469 27.902344 171.566406 27.902344 Z M 171.566406 27.902344 " fill-opacity="1" fill-rule="nonzero"/></g></svg>